<svg width="32" height="13" viewBox="0 0 32 13" fill="none" xmlns="http://www.w3.org/2000/svg">
<path d="M3.68 3.648C2.96533 4.36267 2.608 5.27467 2.608 6.384C2.608 7.49333 2.96533 8.41067 3.68 9.136C4.40533 9.85067 5.28 10.208 6.304 10.208C7.18933 10.208 7.95733 9.95733 8.608 9.456C9.25867 8.944 9.65867 8.28267 9.808 7.472H5.696V5.6H12.032C12.064 5.824 12.08 6.16 12.08 6.608C12.08 7.68533 11.8187 8.66133 11.296 9.536C10.784 10.4 10.0853 11.0773 9.2 11.568C8.32533 12.048 7.36 12.288 6.304 12.288C5.51467 12.288 4.768 12.144 4.064 11.856C3.36 11.5573 2.74667 11.152 2.224 10.64C1.70133 10.128 1.28533 9.504 0.976 8.768C0.677333 8.02133 0.528 7.22667 0.528 6.384C0.528 5.54133 0.677333 4.752 0.976 4.016C1.28533 3.26933 1.70133 2.64 2.224 2.128C2.74667 1.616 3.36 1.216 4.064 0.927999C4.768 0.629333 5.51467 0.48 6.304 0.48C7.424 0.48 8.44267 0.768 9.36 1.344C10.288 1.90933 10.9867 2.688 11.456 3.68L9.6 4.64C9.29067 3.98933 8.84267 3.48267 8.256 3.12C7.66933 2.74667 7.01867 2.56 6.304 2.56C5.28 2.56 4.40533 2.92267 3.68 3.648ZM18.1454 2.848H15.5374V6.56H18.1454C18.7427 6.56 19.244 6.37867 19.6494 6.016C20.0547 5.65333 20.2574 5.20533 20.2574 4.672C20.2574 4.14933 20.0547 3.71733 19.6494 3.376C19.2547 3.024 18.7534 2.848 18.1454 2.848ZM18.1454 8.608H15.5374V12H13.4574V0.799999H18.3054C19.4574 0.799999 20.4174 1.168 21.1854 1.904C21.9534 2.64 22.3374 3.56267 22.3374 4.672C22.3374 5.77067 21.9267 6.704 21.1054 7.472C20.2947 8.22933 19.308 8.608 18.1454 8.608ZM31.9058 0.799999V2.848H28.4978V12H26.4178V2.848H22.9938V0.799999H31.9058Z" fill="white"/>
</svg>
