<svg width="24" height="24" viewBox="0 0 24 24" fill="none" xmlns="http://www.w3.org/2000/svg">
<path d="M10.2075 7.11366L20.3062 9.49116C21.2362 9.70866 21.945 10.3874 22.2075 11.3062C22.47 12.2249 22.2225 13.1737 21.5475 13.8487L20.745 14.6512L22.5787 16.4849C23.07 16.9762 23.34 17.6249 23.34 18.3187C23.34 19.0124 23.07 19.6649 22.5787 20.1524L20.1337 22.5974C19.6425 23.0887 18.9937 23.3587 18.3 23.3587C17.6062 23.3587 16.9537 23.0887 16.4662 22.5974L14.6325 20.7637L13.83 21.5662C13.155 22.2412 12.2025 22.4887 11.2875 22.2262C10.3687 21.9637 9.69 21.2549 9.4725 20.3249L7.095 10.2299C6.88875 9.34866 7.1475 8.44116 7.785 7.79991C8.41875 7.16616 9.32625 6.90741 10.2075 7.11366ZM8.77125 9.83991L11.1487 19.9349C11.2537 20.3812 11.6062 20.5274 11.7525 20.5687C11.8987 20.6099 12.2775 20.6737 12.6 20.3474L14.0137 18.9337C14.3512 18.5962 14.8987 18.5962 15.2362 18.9337L17.6812 21.3787C18.0075 21.7049 18.5775 21.7049 18.9037 21.3787L21.3487 18.9337C21.5137 18.7687 21.6037 18.5549 21.6037 18.3224C21.6037 18.0899 21.5137 17.8724 21.3487 17.7112L18.9037 15.2662C18.5662 14.9287 18.5662 14.3812 18.9037 14.0437L20.3175 12.6299C20.64 12.3074 20.58 11.9287 20.5387 11.7824C20.4975 11.6362 20.3512 11.2837 19.905 11.1787L9.81 8.80116C9.38625 8.69991 9.10125 8.92866 9 9.02991C8.89875 9.13116 8.67375 9.41616 8.77125 9.83991ZM3.02625 3.05241C3.3525 2.72616 3.885 2.72616 4.215 3.05241L6.66 5.49741C6.98625 5.82366 6.98625 6.35616 6.66 6.68616C6.495 6.85116 6.28125 6.93366 6.0675 6.93366C5.85375 6.93366 5.63625 6.85116 5.47499 6.68616L3.03 4.24116C2.69625 3.91116 2.69625 3.37866 3.02625 3.05241ZM1.47375 8.18991L4.4925 8.18991C4.95749 8.18991 5.3325 8.56491 5.3325 9.02991C5.3325 9.49491 4.95749 9.86991 4.4925 9.86991H1.47375C1.00875 9.86991 0.633745 9.49491 0.633745 9.02991C0.633745 8.56491 1.00875 8.18991 1.47375 8.18991ZM9.00375 5.35866C8.53875 5.35866 8.16375 4.98366 8.16375 4.51866L8.16375 1.49991C8.16375 1.03491 8.53875 0.659912 9.00375 0.659912C9.46875 0.659912 9.84375 1.03491 9.84375 1.49991L9.84375 4.51866C9.84 4.97991 9.465 5.35866 9.00375 5.35866Z" fill="black"/>
</svg>
