<svg width="21" height="22" viewBox="0 0 21 22" fill="none" xmlns="http://www.w3.org/2000/svg">
<path d="M12.875 21.25H9.125M10.8125 1V2.125M1.625 10.1875H2.75M19.25 10.1875H20M4.31563 16.6844L5.11063 15.8894M16.7787 4.22125L17.3094 3.69063M4.31563 3.69063L5.11063 4.48563M16.7787 16.1537L17.3094 16.6844M13.4375 19C13.4375 15.4375 15.125 14.5 15.125 14.5C17.4688 12.1562 17.585 8.47563 15.2431 6.13188C14.1179 5.00693 12.592 4.37497 11.0009 4.37497C9.40986 4.37497 7.88393 5.00693 6.75875 6.13188C4.415 8.47563 4.53125 12.1562 6.875 14.5C6.875 14.5 8.5625 15.4375 8.5625 19H13.4375Z" stroke="black" stroke-width="1.5" stroke-linecap="round" stroke-linejoin="round"/>
</svg>
