<svg width="24" height="24" viewBox="0 0 24 24" fill="none" xmlns="http://www.w3.org/2000/svg">
<path d="M8.08988 7.46427C6.46036 7.5035 4.8377 7.2403 3.30413 6.68802C3.28992 6.68332 3.27591 6.67807 3.26213 6.67227C1.94625 6.10489 1.66988 5.41527 1.66988 4.93677C1.66988 3.27477 4.89938 2.40552 8.08988 2.40552C11.2804 2.40552 14.5125 3.27477 14.5125 4.93677C14.5125 5.41602 14.2354 6.10639 12.915 6.67264C12.9015 6.67844 12.8877 6.6837 12.8738 6.68839C11.3407 7.2402 9.71873 7.50326 8.08988 7.46427ZM3.675 5.62489L3.70763 5.63727C5.11274 6.1384 6.59816 6.37637 8.0895 6.33927C9.58096 6.37631 11.0665 6.13834 12.4718 5.63727L12.5055 5.62489C13.203 5.32002 13.3886 5.04252 13.3886 4.93714C13.3886 4.51677 11.586 3.53089 8.08988 3.53089C4.59375 3.53089 2.79488 4.51677 2.79488 4.93714C2.79488 5.04177 2.98013 5.31964 3.675 5.62489Z" fill="#222222"/>
<path d="M8.08988 7.46431C6.44785 7.50564 4.8127 7.23787 3.26963 6.67494C3.13218 6.61681 3.02345 6.50646 2.96737 6.36816C2.91128 6.22986 2.91243 6.07495 2.97056 5.9375C3.0287 5.80005 3.13905 5.69133 3.27734 5.63524C3.41564 5.57916 3.57055 5.58031 3.708 5.63844C5.11312 6.13957 6.59853 6.37754 8.08988 6.34044C9.58134 6.37748 11.0669 6.13951 12.4721 5.63844C12.5402 5.60968 12.6132 5.59461 12.6871 5.59408C12.761 5.59356 12.8343 5.60759 12.9027 5.63538C12.9712 5.66316 13.0335 5.70416 13.0861 5.75603C13.1387 5.80791 13.1806 5.86963 13.2094 5.93769C13.2381 6.00575 13.2532 6.0788 13.2537 6.15269C13.2543 6.22657 13.2402 6.29983 13.2124 6.36829C13.1847 6.43675 13.1437 6.49907 13.0918 6.55168C13.0399 6.6043 12.9782 6.64618 12.9101 6.67494C11.367 7.23783 9.7319 7.50561 8.08988 7.46431ZM8.08988 14.7618C6.44561 14.8038 4.80827 14.5341 3.26438 13.9668C1.94625 13.3987 1.66988 12.7094 1.66988 12.2306V9.80056C1.66988 9.65138 1.72914 9.50831 1.83463 9.40282C1.94012 9.29733 2.08319 9.23806 2.23238 9.23806C2.38156 9.23806 2.52463 9.29733 2.63012 9.40282C2.73561 9.50831 2.79488 9.65138 2.79488 9.80056C2.79488 9.90594 2.97975 10.1834 3.67538 10.4887C3.68613 10.4924 3.697 10.4966 3.708 10.5011C5.11312 11.0022 6.59853 11.2402 8.08988 11.2031C9.58141 11.2397 11.0669 11.0014 12.4721 10.4999C12.483 10.4954 12.4939 10.4909 12.5055 10.4872C13.203 10.1823 13.3886 9.90481 13.3886 9.79944C13.3886 9.65026 13.4479 9.50718 13.5534 9.40169C13.6589 9.2962 13.8019 9.23694 13.9511 9.23694C14.1003 9.23694 14.2434 9.2962 14.3489 9.40169C14.4544 9.50718 14.5136 9.65026 14.5136 9.79944V12.2294C14.5136 12.7091 14.2365 13.3991 12.9161 13.9653C11.3721 14.5332 9.73449 14.8035 8.08988 14.7618ZM2.79488 11.3062V12.2306C2.79488 12.3374 2.98575 12.6217 3.70763 12.9326C5.11236 13.4359 6.59817 13.6747 8.08988 13.6368C9.58225 13.6746 11.0687 13.4356 12.474 12.9318C13.197 12.6221 13.3886 12.3374 13.3886 12.2306V11.3051C13.2353 11.3904 13.0776 11.4676 12.9161 11.5364C12.9025 11.5421 12.8888 11.5473 12.8749 11.5522C11.3415 12.1041 9.71911 12.3672 8.08988 12.3281C6.46036 12.3673 4.8377 12.1041 3.30413 11.5518C3.28988 11.5471 3.276 11.5418 3.2625 11.5361C3.10274 11.4676 2.94665 11.3909 2.79488 11.3062Z" fill="#222222"/>
<path d="M8.08988 9.89989C6.45931 9.93951 4.83569 9.67408 3.30263 9.11727C3.28904 9.1127 3.27566 9.10757 3.2625 9.10189C1.94625 8.53564 1.66988 7.84564 1.66988 7.36677V4.93677C1.66988 4.78758 1.72914 4.64451 1.83463 4.53902C1.94012 4.43353 2.08319 4.37427 2.23238 4.37427C2.38156 4.37427 2.52463 4.43353 2.63012 4.53902C2.73561 4.64451 2.79488 4.78758 2.79488 4.93677C2.79488 5.04177 2.98013 5.31964 3.67538 5.62489L3.708 5.63727C5.11312 6.1384 6.59853 6.37637 8.08988 6.33927C9.58134 6.3763 11.0669 6.13834 12.4721 5.63727L12.5055 5.62489C13.203 5.32002 13.3886 5.04252 13.3886 4.93714C13.3886 4.78796 13.4479 4.64488 13.5534 4.5394C13.6589 4.43391 13.8019 4.37464 13.9511 4.37464C14.1003 4.37464 14.2434 4.43391 14.3489 4.5394C14.4544 4.64488 14.5136 4.78796 14.5136 4.93714V7.36714C14.5136 7.84677 14.2365 8.53752 12.9161 9.10264C12.903 9.10827 12.8899 9.11352 12.8764 9.11802C11.3435 9.67435 9.72014 9.93952 8.08988 9.89989ZM3.675 8.05452C3.68663 8.05864 3.69788 8.06314 3.70913 8.06802C5.11209 8.57644 6.59821 8.81624 8.08988 8.77489C9.5813 8.81679 11.0673 8.57763 12.4703 8.06989C12.4818 8.06484 12.4935 8.06034 12.5055 8.05639C13.203 7.75152 13.3886 7.47402 13.3886 7.36864V6.44164C13.2354 6.52707 13.0777 6.60418 12.9161 6.67264C12.9026 6.67844 12.8888 6.6837 12.8749 6.68839C11.3415 7.24033 9.71911 7.5034 8.08988 7.46427C6.46036 7.5035 4.8377 7.2403 3.30413 6.68802C3.28992 6.68332 3.27591 6.67807 3.26213 6.67227C3.10253 6.60387 2.94657 6.52727 2.79488 6.44277V7.36677C2.79488 7.47214 2.97975 7.74964 3.675 8.05452ZM15.9064 19.1624C14.2766 19.2019 12.6536 18.9385 11.1199 18.3858C11.106 18.3814 11.0923 18.3763 11.079 18.3704C9.76275 17.8034 9.48638 17.1138 9.48638 16.6349C9.48638 14.9733 12.7159 14.1036 15.9064 14.1036C19.0969 14.1036 22.3301 14.9733 22.3301 16.6349C22.3301 17.1145 22.053 17.8049 20.733 18.3708C20.7195 18.3767 20.7058 18.382 20.6917 18.3865C19.1583 18.9387 17.5357 19.2018 15.9064 19.1624ZM11.4926 17.3249C11.5031 17.3286 11.514 17.3328 11.5241 17.3373C12.9295 17.8377 14.415 18.075 15.9064 18.0374C17.3975 18.0736 18.8826 17.8352 20.2875 17.3339L20.3205 17.3208C21.018 17.0159 21.2036 16.7388 21.2036 16.633C21.2036 16.2126 19.4006 15.2268 15.9049 15.2268C12.4091 15.2268 10.6125 16.2126 10.6125 16.633C10.6125 16.7388 10.7966 17.0163 11.4926 17.3215V17.3249Z" fill="#222222"/>
<path d="M15.9064 19.1624C14.2642 19.2032 12.6289 18.9351 11.0858 18.3719C10.9484 18.3138 10.8397 18.2035 10.7836 18.0652C10.7276 17.9269 10.7287 17.7721 10.7869 17.6347C10.845 17.4973 10.9553 17.3886 11.0936 17.3326C11.2319 17.2765 11.3867 17.2777 11.5241 17.3358C12.9294 17.8367 14.4149 18.0745 15.9064 18.0374C17.3975 18.0737 18.8827 17.8352 20.2875 17.3339C20.3558 17.3034 20.4296 17.2868 20.5044 17.2851C20.5793 17.2834 20.6537 17.2966 20.7233 17.3241C20.793 17.3515 20.8565 17.3926 20.91 17.4449C20.9636 17.4971 21.0062 17.5596 21.0353 17.6286C21.0645 17.6975 21.0795 17.7716 21.0797 17.8465C21.0798 17.9213 21.065 17.9954 21.0361 18.0645C21.0072 18.1336 20.9648 18.1962 20.9114 18.2486C20.858 18.3011 20.7947 18.3424 20.7251 18.3701C19.1827 18.9337 17.5481 19.2025 15.9064 19.1624Z" fill="#222222"/>
<path d="M15.9064 21.5945C14.2756 21.6342 12.6518 21.369 11.1184 20.8126C11.105 20.8082 11.0919 20.8032 11.079 20.7976C9.76275 20.2302 9.48637 19.5406 9.48637 19.0621V16.6321C9.48637 16.4829 9.54564 16.3398 9.65113 16.2343C9.75662 16.1288 9.89969 16.0696 10.0489 16.0696C10.1981 16.0696 10.3411 16.1288 10.4466 16.2343C10.5521 16.3398 10.6114 16.4829 10.6114 16.6321C10.6114 16.7378 10.7966 17.0153 11.4926 17.3206C11.5036 17.3243 11.5141 17.3285 11.5241 17.333C12.9292 17.8349 14.4148 18.0737 15.9064 18.0376C17.3975 18.0738 18.8826 17.8354 20.2875 17.3341L20.3205 17.321C21.018 17.0161 21.2036 16.739 21.2036 16.6332C21.2036 16.484 21.2629 16.3409 21.3684 16.2355C21.4739 16.13 21.6169 16.0707 21.7661 16.0707C21.9153 16.0707 22.0584 16.13 22.1639 16.2355C22.2694 16.3409 22.3286 16.484 22.3286 16.6332V19.0632C22.3286 19.5425 22.0515 20.2328 20.7315 20.7991C20.7184 20.8047 20.7052 20.8096 20.6917 20.8145C19.159 21.3696 17.5361 21.6341 15.9064 21.5945ZM11.4926 19.7517C11.5039 19.7558 11.5151 19.76 11.5256 19.7645C12.9298 20.268 14.4151 20.5071 15.9064 20.4695C17.398 20.5111 18.8842 20.272 20.2875 19.7645C20.2987 19.7596 20.3104 19.7551 20.322 19.751C21.0195 19.4457 21.2051 19.1686 21.2051 19.0632V18.1381C21.052 18.2234 20.8944 18.3005 20.733 18.3691C20.7195 18.375 20.7058 18.3803 20.6917 18.3848C19.1584 18.9376 17.5359 19.2014 15.9064 19.1626C14.2766 19.2021 12.6536 18.9387 11.1199 18.386C11.106 18.3816 11.0923 18.3765 11.079 18.3706C10.9192 18.3023 10.7631 18.2257 10.6114 18.1411V19.0651C10.6125 19.1686 10.7966 19.4461 11.4926 19.7517Z" fill="#222222"/>
<path d="M8.08988 17.192C4.89938 17.192 1.66988 16.3238 1.66988 14.6645V12.2307C1.66988 12.1568 1.68443 12.0837 1.71269 12.0155C1.74096 11.9472 1.7824 11.8852 1.83463 11.833C1.88686 11.7807 1.94887 11.7393 2.01712 11.711C2.08536 11.6828 2.15851 11.6682 2.23238 11.6682C2.30624 11.6682 2.37939 11.6828 2.44764 11.711C2.51588 11.7393 2.57789 11.7807 2.63012 11.833C2.68236 11.8852 2.72379 11.9472 2.75206 12.0155C2.78033 12.0837 2.79488 12.1568 2.79488 12.2307C2.79488 12.3376 2.98575 12.6218 3.70763 12.9327C5.11236 13.436 6.59817 13.6748 8.08988 13.637C9.58225 13.6748 11.0687 13.4358 12.474 12.932C13.197 12.6222 13.3886 12.3376 13.3886 12.2307C13.3886 12.0815 13.4479 11.9385 13.5534 11.833C13.6589 11.7275 13.8019 11.6682 13.9511 11.6682C14.1003 11.6682 14.2434 11.7275 14.3489 11.833C14.4544 11.9385 14.5136 12.0815 14.5136 12.2307V14.6626C14.5137 14.7398 14.506 14.8168 14.4908 14.8925C14.4609 15.0387 14.3742 15.167 14.2497 15.2493C14.1253 15.3316 13.9732 15.361 13.827 15.3312C13.6808 15.3014 13.5524 15.2147 13.4702 15.0902C13.3879 14.9657 13.3584 14.8137 13.3883 14.6675V13.7356C13.2351 13.821 13.0775 13.8981 12.9161 13.9666C11.372 14.5341 9.73442 14.804 8.08988 14.762C6.44561 14.804 4.80827 14.5342 3.26438 13.967C3.10389 13.8985 2.94716 13.8215 2.79488 13.7363V14.6626C2.79488 15.0822 4.59488 16.0651 8.08988 16.0651C8.72506 16.0659 9.35972 16.0284 9.99038 15.9526C10.1388 15.9347 10.2882 15.9766 10.4057 16.0689C10.5233 16.1612 10.5993 16.2964 10.6172 16.4448C10.635 16.5932 10.5932 16.7426 10.5009 16.8601C10.4086 16.9777 10.2734 17.0537 10.125 17.0716C9.44968 17.1527 8.77006 17.1929 8.08988 17.192Z" fill="#222222"/>
<path d="M8.08988 12.3282C6.46036 12.3674 4.8377 12.1042 3.30413 11.5519C3.28988 11.5472 3.276 11.5419 3.2625 11.5362C1.94625 10.9696 1.66988 10.2796 1.66988 9.80069V7.36694C1.66988 7.21776 1.72914 7.07468 1.83463 6.9692C1.94012 6.86371 2.08319 6.80444 2.23238 6.80444C2.38156 6.80444 2.52463 6.86371 2.63012 6.9692C2.73561 7.07468 2.79488 7.21776 2.79488 7.36694C2.79488 7.47232 2.97975 7.74982 3.67538 8.05469C3.687 8.05882 3.69825 8.06332 3.7095 8.06819C5.11234 8.57656 6.59833 8.81636 8.08988 8.77507C9.5813 8.81696 11.0673 8.5778 12.4703 8.07007C12.4818 8.06502 12.4935 8.06051 12.5055 8.05657C13.203 7.75169 13.3886 7.47419 13.3886 7.36882C13.3886 7.21963 13.4479 7.07656 13.5534 6.97107C13.6589 6.86558 13.8019 6.80632 13.9511 6.80632C14.1003 6.80632 14.2434 6.86558 14.3489 6.97107C14.4544 7.07656 14.5136 7.21963 14.5136 7.36882V9.80257C14.5136 10.2822 14.2365 10.9729 12.9161 11.5384C12.9025 11.5441 12.8888 11.5493 12.8749 11.5542C11.3414 12.1055 9.71899 12.3679 8.08988 12.3282ZM3.675 10.4888C3.68575 10.4926 3.69663 10.4967 3.70763 10.5012C5.11274 11.0023 6.59816 11.2403 8.0895 11.2032C9.58116 11.2399 11.0668 11.0016 12.4721 10.5001C12.483 10.4956 12.4939 10.4911 12.5055 10.4873C13.203 10.1824 13.3886 9.90494 13.3886 9.79957V8.87144C13.2353 8.9568 13.0776 9.03391 12.9161 9.10244C12.903 9.10807 12.8899 9.11332 12.8764 9.11782C11.3435 9.67427 9.72016 9.93957 8.08988 9.90007C6.45931 9.93969 4.83569 9.67426 3.30263 9.11744C3.28904 9.11287 3.27566 9.10774 3.2625 9.10207C3.10268 9.0339 2.94658 8.95729 2.79488 8.87257V9.80069C2.79488 9.90607 2.97975 10.1836 3.675 10.4888Z" fill="#222222"/>
</svg>
