<svg width="22" height="22" viewBox="0 0 22 22" fill="none" xmlns="http://www.w3.org/2000/svg">
<path d="M15.08 3.07995C12.9632 3.07995 11.24 4.80315 11.24 6.91995C11.24 9.03675 12.9632 10.76 15.08 10.76C17.1968 10.76 18.92 9.03675 18.92 6.91995C18.92 4.80315 17.1968 3.07995 15.08 3.07995ZM15.08 9.79995C13.4912 9.79995 12.2 8.50875 12.2 6.91995C12.2 5.33115 13.4912 4.03995 15.08 4.03995C16.6688 4.03995 17.96 5.33115 17.96 6.91995C17.96 8.50875 16.6688 9.79995 15.08 9.79995ZM15.08 0.199951C11.3744 0.199951 8.36 3.21435 8.36 6.91995C8.36 7.83435 8.54 8.71755 8.8928 9.54795L0.341597 18.1016C0.250397 18.1904 0.199997 18.3128 0.199997 18.44V21.32C0.199997 21.584 0.415997 21.8 0.679997 21.8H3.56C3.6872 21.8 3.8096 21.7496 3.8984 21.6584L4.8584 20.6984C4.9496 20.6096 5 20.4872 5 20.36V18.92H6.44C6.704 18.92 6.92 18.704 6.92 18.44V17H8.36C8.4872 17 8.6096 16.9496 8.6984 16.8584L12.452 13.1048C13.2824 13.46 14.1656 13.64 15.08 13.64C18.7856 13.64 21.8 10.6256 21.8 6.91995C21.8 3.21435 18.7856 0.199951 15.08 0.199951ZM15.08 12.68C14.1968 12.68 13.3496 12.4856 12.56 12.0992C12.3752 12.0104 12.1544 12.0464 12.0104 12.1904L8.1608 16.04H6.44C6.176 16.04 5.96 16.256 5.96 16.52V17.96H4.52C4.256 17.96 4.04 18.176 4.04 18.44V20.1608L3.3608 20.84H1.16V18.6392L9.8072 9.99195C9.9512 9.84795 9.9896 9.62715 9.8984 9.44235C9.5144 8.65275 9.32 7.80315 9.32 6.91995C9.32 3.74475 11.9048 1.15995 15.08 1.15995C18.2552 1.15995 20.84 3.74475 20.84 6.91995C20.84 10.0952 18.2552 12.68 15.08 12.68Z" fill="black"/>
</svg>
