<svg width="21" height="21" viewBox="0 0 21 21" fill="none" xmlns="http://www.w3.org/2000/svg">
<path d="M16.3125 20.425C18.3836 20.425 20.0625 18.7461 20.0625 16.675C20.0625 14.604 18.3836 12.925 16.3125 12.925C14.2414 12.925 12.5625 14.604 12.5625 16.675C12.5625 18.7461 14.2414 20.425 16.3125 20.425Z" stroke="black" stroke-miterlimit="10" stroke-linecap="round" stroke-linejoin="round"/>
<path d="M17.8125 16.3375L15.75 15.1375C15.4875 14.9875 15.1875 15.175 15.1875 15.475V17.9125C15.1875 18.2125 15.4875 18.4 15.75 18.25L17.8125 17.0125C18.075 16.8625 18.075 16.4875 17.8125 16.3375Z" stroke="black" stroke-miterlimit="10" stroke-linecap="round" stroke-linejoin="round"/>
<path d="M8.4375 11.05C9.68014 11.05 10.6875 10.0427 10.6875 8.80005C10.6875 7.55741 9.68014 6.55005 8.4375 6.55005C7.19486 6.55005 6.1875 7.55741 6.1875 8.80005C6.1875 10.0427 7.19486 11.05 8.4375 11.05Z" stroke="black" stroke-miterlimit="10" stroke-linecap="round" stroke-linejoin="round"/>
<path d="M14.1 12.1375C14.4 11.6125 14.6625 11.05 14.8125 10.45L15.6 10.3C16.05 10.225 16.35 9.8125 16.35 9.4V8.275C16.35 7.825 16.05 7.45 15.6 7.375L14.8125 7.225C14.6625 6.625 14.4375 6.0625 14.1 5.5375L14.55 4.8625C14.775 4.4875 14.7375 4 14.4375 3.7L13.65 2.9125C13.35 2.6125 12.8625 2.5375 12.4875 2.8L11.8125 3.25C11.2875 2.95 10.725 2.6875 10.125 2.5375L9.975 1.75C9.9 1.3 9.4875 1 9.075 1H7.95C7.5 1 7.125 1.3 7.05 1.75L6.9 2.5375C6.3 2.6875 5.7375 2.9125 5.2125 3.25L4.5375 2.8C4.1625 2.575 3.675 2.6125 3.375 2.9125L2.5875 3.7C2.2875 4 2.2125 4.4875 2.475 4.8625L2.925 5.5375C2.625 6.0625 2.3625 6.625 2.2125 7.225L1.425 7.375C0.975003 7.45 0.675003 7.8625 0.675003 8.275V9.4C0.675003 9.85 0.975003 10.225 1.425 10.3L2.2125 10.45C2.3625 11.05 2.5875 11.6125 2.925 12.1375L2.475 12.8125C2.25 13.1875 2.2875 13.675 2.5875 13.975L3.375 14.7625C3.675 15.0625 4.1625 15.1375 4.5375 14.875L5.2125 14.425C5.7375 14.725 6.3 14.9875 6.9 15.1375L7.05 15.925C7.125 16.375 7.5375 16.675 7.95 16.675H9.075C9.525 16.675 9.9 16.375 9.975 15.925L10.125 15.1375C10.725 14.9875 11.2875 14.7625 11.8125 14.425M8.4375 12.55C6.375 12.55 4.6875 10.8625 4.6875 8.8C4.6875 6.7375 6.375 5.05 8.4375 5.05C10.5 5.05 12.1875 6.7375 12.1875 8.8C12.1875 10.8625 10.5 12.55 8.4375 12.55Z" stroke="black" stroke-miterlimit="10" stroke-linecap="round" stroke-linejoin="round"/>
</svg>
